<svg id="Icon_awesome-hand-pointer" data-name="Icon awesome-hand-pointer" xmlns="http://www.w3.org/2000/svg" width="36.852" height="38.174" viewBox="0 0 36.852 38.174">
  <path id="Icon_awesome-hand-pointer-2" data-name="Icon awesome-hand-pointer" d="M25.721,13.783l.013,5.482a2.274,2.274,0,0,1-.06.523L23.86,27.55a2.276,2.276,0,0,1-2.225,1.756L9.725,29.279a2.3,2.3,0,0,1-1.854-.945L.52,18.267a2.283,2.283,0,1,1,3.7-2.678l1.818,2.489L6,2.317A2.275,2.275,0,0,1,8.284.038a2.3,2.3,0,0,1,2.3,2.289l.026,11.421h.458l-.005-2.284a2.275,2.275,0,0,1,2.285-2.279,2.3,2.3,0,0,1,2.3,2.289l.005,2.284H16.1l0-1.371a2.275,2.275,0,0,1,2.285-2.279,2.3,2.3,0,0,1,2.3,2.289l0,1.371h.458a2.275,2.275,0,0,1,2.285-2.279A2.3,2.3,0,0,1,25.721,13.783ZM11.074,18.318h-.458l.013,5.482h.458Zm5.038.011h-.458l.013,5.482h.458Zm5.038.011h-.458l.013,5.482h.458Z" transform="matrix(0.866, -0.5, 0.5, 0.866, -0.087, 12.834)" fill="#fff"/>
</svg>
