<svg xmlns="http://www.w3.org/2000/svg" width="27.828" height="21.64" viewBox="0 0 27.828 21.64">
  <path id="Icon_awesome-home" data-name="Icon awesome-home" d="M13.544,7.868,4.637,15.2v7.917a.773.773,0,0,0,.773.773l5.414-.014a.773.773,0,0,0,.769-.773V18.483a.773.773,0,0,1,.773-.773h3.092a.773.773,0,0,1,.773.773V23.1a.773.773,0,0,0,.773.775l5.412.015a.773.773,0,0,0,.773-.773V15.2l-8.9-7.33A.589.589,0,0,0,13.544,7.868Zm14.069,4.986L23.574,9.525V2.833a.58.58,0,0,0-.58-.58H20.289a.58.58,0,0,0-.58.58V6.341L15.385,2.782a2.319,2.319,0,0,0-2.947,0L.209,12.853a.58.58,0,0,0-.077.816l1.232,1.5a.58.58,0,0,0,.817.079L13.544,5.887a.589.589,0,0,1,.739,0l11.364,9.359a.58.58,0,0,0,.816-.077l1.232-1.5a.58.58,0,0,0-.082-.818Z" transform="translate(0.001 -2.254)" fill="#fff"/>
</svg>
