<svg xmlns="http://www.w3.org/2000/svg" width="25" height="20" viewBox="0 0 30 26">
  <path id="Icon_awesome-user-plus" data-name="Icon awesome-user-plus" d="M29.25,10.563h-3V7.313A.785.785,0,0,0,25.5,6.5H24a.785.785,0,0,0-.75.813v3.25h-3a.785.785,0,0,0-.75.813V13a.785.785,0,0,0,.75.813h3v3.25a.785.785,0,0,0,.75.813h1.5a.785.785,0,0,0,.75-.812v-3.25h3A.785.785,0,0,0,30,13V11.375A.785.785,0,0,0,29.25,10.563ZM10.5,13a6.265,6.265,0,0,0,6-6.5,6.265,6.265,0,0,0-6-6.5,6.265,6.265,0,0,0-6,6.5A6.265,6.265,0,0,0,10.5,13Zm4.2,1.625h-.783a7.592,7.592,0,0,1-6.834,0H6.3A6.58,6.58,0,0,0,0,21.45v2.112A2.35,2.35,0,0,0,2.25,26h16.5A2.35,2.35,0,0,0,21,23.563V21.45A6.58,6.58,0,0,0,14.7,14.625Z" fill="#fff"/>
</svg>
