<svg xmlns="http://www.w3.org/2000/svg" width="23.857" height="23.862" viewBox="0 0 23.857 23.862">
  <path id="Icon_awesome-globe" data-name="Icon awesome-globe" d="M16.189,7.875c-.7-4.3-2.343-7.313-4.258-7.313S8.371,3.579,7.673,7.875ZM7.313,12.494a30.155,30.155,0,0,0,.159,3.079h8.915a30.155,30.155,0,0,0,.159-3.079,30.155,30.155,0,0,0-.159-3.079H7.471A30.154,30.154,0,0,0,7.313,12.494ZM22.934,7.875a11.956,11.956,0,0,0-7.6-6.812,16.237,16.237,0,0,1,2.405,6.812ZM8.525,1.063a11.948,11.948,0,0,0-7.6,6.812h5.2a16.171,16.171,0,0,1,2.4-6.812ZM23.448,9.415H17.93c.1,1.01.159,2.045.159,3.079s-.058,2.069-.159,3.079h5.513a11.828,11.828,0,0,0,.414-3.079A12.035,12.035,0,0,0,23.448,9.415ZM5.773,12.494c0-1.034.058-2.069.159-3.079H.414a11.664,11.664,0,0,0,0,6.158H5.927C5.831,14.562,5.773,13.528,5.773,12.494Zm1.9,4.618c.7,4.3,2.343,7.313,4.258,7.313s3.56-3.016,4.258-7.313Zm7.664,6.812a11.968,11.968,0,0,0,7.6-6.812h-5.2a16.237,16.237,0,0,1-2.405,6.812ZM.929,17.112a11.956,11.956,0,0,0,7.6,6.812,16.237,16.237,0,0,1-2.405-6.812H.929Z" transform="translate(0 -0.563)" fill="#fff"/>
</svg>
