<svg id="Group_376" data-name="Group 376" xmlns="http://www.w3.org/2000/svg" width="20.387" height="26.872" viewBox="0 0 20.387 26.872">
  <path id="Icon_awesome-lightbulb" data-name="Icon awesome-lightbulb" d="M5.564,23.846a1.57,1.57,0,0,0,.31.928l.99,1.348a1.91,1.91,0,0,0,1.543.749h3.574a1.91,1.91,0,0,0,1.543-.749l.99-1.348a1.569,1.569,0,0,0,.31-.928l0-2.013H5.561ZM0,9.237a8.709,8.709,0,0,0,2.523,6.077,14.806,14.806,0,0,1,3.024,4.8c0,.014,0,.027.006.041h9.281c0-.014,0-.027.006-.041a14.806,14.806,0,0,1,3.024-4.8,8.709,8.709,0,0,0,2.523-6.077c0-5.111-4.581-9.253-10.226-9.237C4.254.016,0,4.355,0,9.237Zm10.194-4.2a4.437,4.437,0,0,0-4.633,4.2.886.886,0,0,1-.927.84.886.886,0,0,1-.927-.84c0-3.241,2.91-5.878,6.487-5.878a.886.886,0,0,1,.927.84A.886.886,0,0,1,10.194,5.038Z" transform="translate(0 0)" fill="#fff"/>
</svg>
