<svg xmlns="http://www.w3.org/2000/svg" width="30" height="15" viewBox="0 0 40.041 32.034">
  <path id="Icon_awesome-user-edit" data-name="Icon awesome-user-edit" d="M14.015,16.017A8.008,8.008,0,1,0,6.006,8.008,8.008,8.008,0,0,0,14.015,16.017Zm5.606,2H18.576a10.891,10.891,0,0,1-9.122,0H8.409A8.411,8.411,0,0,0,0,26.428v2.6a3,3,0,0,0,3,3H20.2A3,3,0,0,1,20.04,30.7l.425-3.81.075-.694.494-.494,4.836-4.836a8.323,8.323,0,0,0-6.25-2.847Zm2.834,9.091-.425,3.817a1,1,0,0,0,1.1,1.1l3.81-.425,8.628-8.628-4.486-4.486L22.455,27.11ZM39.6,16.824l-2.371-2.371a1.5,1.5,0,0,0-2.115,0l-2.365,2.365-.257.257,4.492,4.486L39.6,18.945a1.507,1.507,0,0,0,0-2.121Z" fill="#fff"/>
</svg>
