<svg xmlns="http://www.w3.org/2000/svg" width="30" height="30" viewBox="0 0 26.52 25.848">
  <path id="Icon_awesome-arrow-left" data-name="Icon awesome-arrow-left" d="M15.241,26.764l-1.314,1.314a1.415,1.415,0,0,1-2.007,0L.414,16.578a1.415,1.415,0,0,1,0-2.007L11.92,3.065a1.415,1.415,0,0,1,2.007,0l1.314,1.314a1.422,1.422,0,0,1-.024,2.03L8.085,13.2H25.1a1.417,1.417,0,0,1,1.421,1.421v1.894A1.417,1.417,0,0,1,25.1,17.939H8.085l7.132,6.795A1.412,1.412,0,0,1,15.241,26.764Z" transform="translate(0.004 -2.647)" fill="#fff"/>
</svg>
