<svg xmlns="http://www.w3.org/2000/svg" width="40" height="40" viewBox="0 0 30.849 30.849">
  <path id="Icon_metro-user-minus" data-name="Icon metro-user-minus" d="M14.139,24.1a10.622,10.622,0,0,1,6.93-9.947,8.8,8.8,0,0,0,.782-3.549c0-4.792,0-8.676-5.784-8.676S10.283,5.812,10.283,10.6a8.611,8.611,0,0,0,3.856,7.165v1.59c-6.54.535-11.568,3.748-11.568,7.633H14.54a10.579,10.579,0,0,1-.4-2.892Zm10.6-8.676A8.676,8.676,0,1,0,33.419,24.1a8.676,8.676,0,0,0-8.676-8.676Zm4.82,9.64h-9.64V23.136h9.64Z" transform="translate(-2.571 -1.928)" fill="#f1c447"/>
</svg>
